<svg xmlns="http://www.w3.org/2000/svg" width="28" height="28" viewBox="0 0 28 28">
  <g id="系统管理点击" transform="translate(79 21529)">
    <rect id="矩形_997" data-name="矩形 997" width="28" height="28" transform="translate(-79 -21529)" opacity="0"/>
    <path id="减去_18" data-name="减去 18" d="M19.611,30.073a12.341,12.341,0,0,1-1.853-.14A5.417,5.417,0,0,0,12.389,25a5.342,5.342,0,0,0-2.269.5,12.065,12.065,0,0,1-1.633-2.7,5.39,5.39,0,0,0-.282-9,12.016,12.016,0,0,1,1.978-3.487,5.391,5.391,0,0,0,7.564-4.353,12.336,12.336,0,0,1,4.293.1,5.393,5.393,0,0,0,7.133,4.421A11.992,11.992,0,0,1,31.124,14.1a5.388,5.388,0,0,0-.252,8.37,12.037,12.037,0,0,1-1.633,2.855,5.393,5.393,0,0,0-7.211,4.508A12.282,12.282,0,0,1,19.611,30.073Zm0-16.892a4.762,4.762,0,1,0,4.762,4.762A4.767,4.767,0,0,0,19.611,13.181Z" transform="translate(-84.454 -21533.031)"/>
  </g>
</svg>
